<?xml version="1.0" encoding="UTF-8"?><svg id="Layer_2" xmlns="http://www.w3.org/2000/svg" viewBox="0 0 388.58 55.81"><defs><style>.cls-1{fill:#1d1d1b;}</style></defs><g id="Layer_1-2"><g><path class="cls-1" d="M0,29.67v-.58C0,13.75,10.66,2.81,25.71,2.81c11.02,0,20.81,5.04,22.18,17.35h-9.58c-1.15-6.84-5.76-9.79-12.46-9.79-10.08,0-15.91,7.49-15.91,18.79v.58c0,11.02,5.11,18.58,15.91,18.58,9.65,0,13.61-5.83,13.9-12.96h-12.96v-7.2h22.39v4.75c0,14.26-8.93,22.9-23.47,22.9C9.22,55.81,0,44.86,0,29.67Z"/><path class="cls-1" d="M54.79,17.43h8.71v7.06c2.38-4.75,5.9-7.56,12.24-7.63v8.14c-7.63,.07-12.24,2.52-12.24,10.51v19.59h-8.71V17.43Z"/><path class="cls-1" d="M77.18,36.65v-.58c0-11.67,8.28-19.44,19.37-19.44s19.3,7.7,19.3,19.23v.58c0,11.74-8.28,19.37-19.37,19.37s-19.3-7.7-19.3-19.15Zm29.74-.14v-.5c0-7.78-3.89-12.53-10.37-12.53s-10.44,4.68-10.44,12.46v.58c0,7.71,3.82,12.53,10.44,12.53s10.37-4.82,10.37-12.53Z"/><path class="cls-1" d="M120.45,41.55V17.43h8.71v23.11c0,5.69,2.38,8.28,7.42,8.28,4.68,0,8.79-3.02,8.79-9V17.43h8.71V55.09h-8.71v-5.9c-1.87,3.67-5.83,6.62-11.95,6.62-7.42,0-12.96-4.25-12.96-14.26Z"/><path class="cls-1" d="M161.5,17.43h8.71v5.98c1.8-3.67,5.98-6.77,12.17-6.77,7.56,0,12.89,4.39,12.89,14.76v23.69h-8.71v-22.9c0-5.69-2.3-8.28-7.49-8.28-4.9,0-8.86,3.02-8.86,9v22.18h-8.71V17.43Z"/><path class="cls-1" d="M199.94,36.87v-.58c0-12.03,7.13-19.66,16.92-19.66,6.12,0,9.94,2.81,12.03,6.55V0h8.71V55.09h-8.71v-6.34c-2.02,3.74-6.84,7.06-12.38,7.06-9.43,0-16.56-6.7-16.56-18.94Zm29.23-.43v-.58c0-8.28-3.82-12.39-10.15-12.39s-10.15,4.46-10.15,12.6v.58c0,8.28,4.18,12.24,9.79,12.24,6.05,0,10.51-4.03,10.51-12.46Z"/><path class="cls-1" d="M259.48,29.67v-.58c0-14.62,10.58-26.07,25.06-26.07s25.06,11.45,25.06,25.92v.58c0,14.54-10.51,26.14-24.91,26.14s-25.2-11.59-25.2-25.99Zm45.94-.22v-.58c0-12.53-8.28-22.54-20.88-22.54s-20.95,9.72-20.95,22.68v.58c0,13.1,9.14,22.68,21.1,22.68s20.74-9.65,20.74-22.83Z"/><path class="cls-1" d="M317.44,17.43h3.82v7.34c1.73-4.1,6.62-7.92,13.32-7.92,7.99,0,13.39,4.32,13.39,15.05v23.19h-3.82V31.68c0-7.99-3.75-11.52-10.44-11.52-6.26,0-12.46,4.18-12.46,12.1v22.83h-3.82V17.43Z"/><path class="cls-1" d="M354.81,36.65v-.58c0-11.38,7.2-19.23,17.28-19.23,9.07,0,16.49,5.9,16.49,18.36v1.37h-29.81c.14,10.08,4.97,15.84,13.9,15.84,6.26,0,10.51-2.59,11.81-7.85h3.82c-1.58,7.2-7.56,11.09-15.62,11.09-10.87,0-17.86-7.71-17.86-19.01Zm29.81-3.17c-.36-9.14-5.18-13.39-12.53-13.39s-12.46,5.18-13.18,13.39h25.71Z"/></g></g></svg>